<svg id="Layer_1" data-name="Layer 1" xmlns="http://www.w3.org/2000/svg" viewBox="0 0 44.75 44.95"><defs><style>.cls-1{fill:lime;}</style></defs><title>THS</title><path class="cls-1" d="M34.57,43.46h.48v.1h-.19v.57h-.11v-.57h-.19Z" transform="translate(-0.05 -0.02)"/><path class="cls-1" d="M35.24,43.46h.19l.15.52.15-.52h.19v.67H35.8v-.55h0l-.16.52h-.11l-.16-.52h0v.55h-.11Z" transform="translate(-0.05 -0.02)"/><path class="cls-1" d="M44.7,1.14A.72.72,0,0,0,44.48.9.72.72,0,0,0,43.25.24l-.4.42L42.1,1a1.33,1.33,0,0,0-.78,0,.57.57,0,0,1-.32,0A1.88,1.88,0,0,0,39.94,1a1.75,1.75,0,0,0-.66.12,1.64,1.64,0,0,0-.77.63l-.07.09a2.33,2.33,0,0,0-1.68,1.28,2,2,0,0,0-.13.42A3.62,3.62,0,0,0,36,3.18a3.79,3.79,0,0,0-3.86.57,3.89,3.89,0,0,0-1.29,4,6.94,6.94,0,0,0,.8,2,22.76,22.76,0,0,0,3.25,4,19.24,19.24,0,0,1,2.62,3.16l.1.18c.74,1.41.6,2.45-.41,3.08a2.54,2.54,0,0,1-1.07.37,4.66,4.66,0,0,0-.27-3.87,4.38,4.38,0,0,0-.56-.76c-1.48-1.62-3.05-1.26-3.67-.84a.72.72,0,0,0-.28.85l.05.11a.72.72,0,0,0,.71.35,2,2,0,0,1,1.8,1.09,2.27,2.27,0,0,1,0,2.33,9,9,0,0,1-1-1l-.13-.13-.07-.08a6.3,6.3,0,0,0-3.59-2.26,5.78,5.78,0,0,0-.76-2.72,8.17,8.17,0,0,0-2.54-2.77,5,5,0,0,0-.5-.3,5.77,5.77,0,0,0-4.21-5.08,5.05,5.05,0,0,0-5.55,2.13c-.1.16-.21.32-.31.5a22.93,22.93,0,0,0-1.94,5.2,21.77,21.77,0,0,1-1.45,4.09l-.11.2c-.4.7-.76,1.09-1.14,1.21a.76.76,0,0,1-.7-.12c-.38-.26-.29-.79,0-1.82a6.23,6.23,0,0,0,.24-.84,2.23,2.23,0,0,0-.38-1.77,2,2,0,0,0-1.47-.77,2.2,2.2,0,0,0-2.11,1.35l-.15.28a1.81,1.81,0,0,0-.59-.86A1.75,1.75,0,0,0,4.91,14a1.9,1.9,0,0,0-1-.37.64.64,0,0,1-.32-.1,1.33,1.33,0,0,0-.81-.18l-.61-.48-.27-.52a.72.72,0,0,0-1.36.29A.72.72,0,0,0,.6,14l.57.14.64.5a1.33,1.33,0,0,0,.36.69.57.57,0,0,1,.16.28,1.88,1.88,0,0,0,.59.88,1.75,1.75,0,0,0,.43.52,1.64,1.64,0,0,0,.93.35l.11,0a2.33,2.33,0,0,0,2,.82,2,2,0,0,0,.43-.1,3.62,3.62,0,0,0,0,.71,3.79,3.79,0,0,0,2.43,3.06,3.89,3.89,0,0,0,4.13-.9,6.94,6.94,0,0,0,1.3-1.67,22.76,22.76,0,0,0,1.83-4.81,19.24,19.24,0,0,1,1.42-3.85l.11-.18c.85-1.35,1.82-1.75,2.87-1.19a2.54,2.54,0,0,1,.86.74,4.66,4.66,0,0,0-3.21,2.17,4.38,4.38,0,0,0-.38.86c-.66,2.09.43,3.27,1.11,3.6a.72.72,0,0,0,.87-.19l.07-.1a.72.72,0,0,0,0-.79,2,2,0,0,1,0-2.11,2.27,2.27,0,0,1,2-1.15,9,9,0,0,1-.33,1.35l-.05.18,0,.1a6.3,6.3,0,0,0-.17,4.24,5.78,5.78,0,0,0-2,2,8.17,8.17,0,0,0-1.13,3.58,5,5,0,0,0,0,.58,5.77,5.77,0,0,0-2.3,6.19,5.05,5.05,0,0,0,4.62,3.74l.58,0a22.93,22.93,0,0,0,5.47-.92,21.77,21.77,0,0,1,4.27-.79h.22a2.42,2.42,0,0,1,1.62.38.76.76,0,0,1,.25.67c0,.46-.54.65-1.6.87a6.23,6.23,0,0,0-.84.22,2.23,2.23,0,0,0-1.35,1.21,2,2,0,0,0,.07,1.66,2.2,2.2,0,0,0,2.23,1.16h.31a1.81,1.81,0,0,0-.44.94,1.75,1.75,0,0,0,0,.68,1.9,1.9,0,0,0,.17,1,.64.64,0,0,1,.08.33,1.33,1.33,0,0,0,.25.79l-.11.77-.31.49a.72.72,0,0,0,.93,1,.72.72,0,0,0,1.18-.73l-.16-.56.12-.81a1.33,1.33,0,0,0,.41-.66.57.57,0,0,1,.16-.28,1.88,1.88,0,0,0,.47-.95,1.75,1.75,0,0,0,.23-.63,1.64,1.64,0,0,0-.16-1l0-.1a2.33,2.33,0,0,0-.27-2.1,2,2,0,0,0-.3-.32,3.62,3.62,0,0,0,.62-.34,3.79,3.79,0,0,0,1.44-3.63,3.89,3.89,0,0,0-2.84-3.13,6.94,6.94,0,0,0-2.1-.29,22.76,22.76,0,0,0-5.08.82,19.24,19.24,0,0,1-4,.69h-.21c-1.59-.06-2.42-.7-2.46-1.89a2.54,2.54,0,0,1,.21-1.11,4.66,4.66,0,0,0,3.48,1.7,4.38,4.38,0,0,0,.94-.1c2.14-.47,2.62-2,2.57-2.76a.72.72,0,0,0-.6-.66h-.12a.72.72,0,0,0-.66.44,2,2,0,0,1-1.84,1,2.27,2.27,0,0,1-2-1.18,9,9,0,0,1,1.34-.39l.18,0,.11,0a6.3,6.3,0,0,0,3.76-2,5.78,5.78,0,0,0,2.73.7,8.17,8.17,0,0,0,3.67-.81,5,5,0,0,0,.51-.28,5.77,5.77,0,0,0,6.51-1.1,5.05,5.05,0,0,0,.93-5.87c-.09-.17-.18-.34-.28-.51a22.93,22.93,0,0,0-3.53-4.28,21.77,21.77,0,0,1-2.82-3.3l-.12-.19a2.42,2.42,0,0,1-.48-1.59A.76.76,0,0,1,34.51,6c.42-.2.83.15,1.55.95a6.23,6.23,0,0,0,.61.62,2.23,2.23,0,0,0,1.72.56,2,2,0,0,0,1.4-.89,2.2,2.2,0,0,0-.11-2.51l-.16-.27a1.81,1.81,0,0,0,1-.09A1.75,1.75,0,0,0,41.12,4a1.9,1.9,0,0,0,.82-.67.64.64,0,0,1,.25-.23,1.33,1.33,0,0,0,.56-.61l.72-.29.58,0a.72.72,0,0,0,.66-1.08ZM25,14.09a5,5,0,0,1,.68,1.6,2.43,2.43,0,0,1,0,1.42c-.16.35-.62.35-.79-.43A10.08,10.08,0,0,1,25,14.09ZM24,21.71a10.08,10.08,0,0,1-2.31,1.18,5,5,0,0,1,1-1.39A2.43,2.43,0,0,1,24,20.8C24.4,20.76,24.63,21.17,24,21.71Zm5.2-.61A2.43,2.43,0,0,1,28,20.36c-.22-.31,0-.71.77-.47A10.08,10.08,0,0,1,31,21.3,5,5,0,0,1,29.25,21.09Z" transform="translate(-0.05 -0.02)"/><path d="M44.08,1.5l-.65-.16.35-.59-.51.53L42,1.77a.48.48,0,0,0-.53-.13c-.66.17-.68-.19-1.42.09-.15.06-.1-.07-.58.09s-.51.65-.78.7a1.54,1.54,0,0,0-1,2.6c.17.24.27.41.18.5s-.21.13-.4-.16a5.11,5.11,0,0,0-1.77-1.63,3.13,3.13,0,0,0-4.15,3.78c.75,3.37,5.26,6.36,6.71,9.12,1.07,2,.43,3.34-.66,4a3.34,3.34,0,0,1-2.55.41,4,4,0,0,0-.26-4.79c-1.45-1.59-2.74-.73-2.74-.73,2.07-.25,4.18,2.81,2,5.11a8.27,8.27,0,0,1-1.81-1.58c-.32-.34-2-2.37-3.91-2.13.36-2-1-4.31-2.93-5.6a4.35,4.35,0,0,0-.77-.42c-.42-5.29-6.18-6.53-8.48-3-1.87,2.85-2.21,7-3.66,9.73-.69,1.3-1.78,2.38-3,1.55s-.17-2.49,0-3.37a1.33,1.33,0,0,0-1.2-1.7c-1-.08-1.46,1-1.62,1.36a.6.6,0,0,1-1.07.18c-.17-.19-.24-.69-.52-.89s-.4-.15-.53-.25c-.63-.47-.74-.15-1.34-.49a.49.49,0,0,0-.58,0l-1-.82-.34-.66.19.65H.77l.72.18,1,.82a.48.48,0,0,0,.15.53c.48.49.18.68.78,1.19.12.1,0,.12.36.45s.82.12,1,.32a1.54,1.54,0,0,0,2.76-.42c.12-.27.22-.43.35-.4s.22.12.07.43a5.11,5.11,0,0,0-.52,2.35,3.13,3.13,0,0,0,5.35,1.7c2.55-2.34,2.88-7.73,4.54-10.37,1.23-1.94,2.68-2,3.82-1.44a3.34,3.34,0,0,1,1.63,2,4,4,0,0,0-4,2.62c-.65,2.05.74,2.74.74,2.74-1.26-1.67.34-5,3.41-4.31A8.27,8.27,0,0,1,22.5,14c-.13.44-1,2.93.11,4.46-1.95.71-3.22,3.05-3.39,5.33a4.35,4.35,0,0,0,0,.87c-4.37,3-2.56,8.62,1.61,8.86,3.4.2,7.15-1.58,10.25-1.69,1.47-.05,2.94.35,2.83,1.82s-2.07,1.4-2.91,1.7a1.33,1.33,0,0,0-.87,1.89c.41.87,1.63.74,2,.73.79,0,.77.58.69.84s-.48.55-.51.9c0,.5.07.42,0,.58-.1.78.24.72.24,1.4a.49.49,0,0,0,.3.5l-.19,1.31-.4.62.47-.48.34.6-.21-.71.19-1.32a.48.48,0,0,0,.38-.39c.19-.66.5-.5.63-1.27,0-.16.11-.05.21-.54.07-.34-.3-.77-.22-1,.52-1.65-.65-2.28-1.74-2.18-.3,0-.49,0-.52-.1s0-.25.34-.27a5.11,5.11,0,0,0,2.3-.72,3.13,3.13,0,0,0-1.2-5.48c-3.3-1-8.14,1.37-11.25,1.25-2.3-.09-3.11-1.3-3.16-2.59a3.34,3.34,0,0,1,.92-2.41,4,4,0,0,0,4.28,2.17c2.1-.46,2-2,2-2-.82,1.92-4.53,2.22-5.44-.8a8.27,8.27,0,0,1,2.27-.78c.45-.11,3.06-.56,3.8-2.32C28.3,24.08,31,24,33,23a4.35,4.35,0,0,0,.74-.45c4.8,2.28,8.74-2.09,6.87-5.83-1.53-3-4.94-5.4-6.59-8-.78-1.25-1.17-2.73.16-3.36S36.44,6.43,37.13,7a1.33,1.33,0,0,0,2.07-.19C39.75,6,39,5,38.84,4.73a.6.6,0,0,1,.38-1c.24-.05.72.14,1,0s.33-.27.48-.33c.72-.31.5-.57,1.09-.91A.49.49,0,0,0,42.11,2l1.23-.49Zm-19.55,11a5.81,5.81,0,0,1,1.84,3.06,2.88,2.88,0,0,1-.2,2c-.46.8-1.71.89-2-.74C23.87,15.54,24.4,13.45,24.52,12.46Zm0,9.81c-1,.85-3,1.44-4,1.82A5.81,5.81,0,0,1,22.28,21a2.88,2.88,0,0,1,1.84-.84C25,20.13,25.74,21.17,24.5,22.27ZM29,21.78a2.88,2.88,0,0,1-1.65-1.18c-.46-.8.08-1.92,1.66-1.4,1.22.41,2.77,1.91,3.56,2.51A5.81,5.81,0,0,1,29,21.78Z" transform="translate(-0.05 -0.02)"/></svg>